HIERARCHY
ROOT joint_Root
{
	OFFSET 0.0 0.0 0.0
	CHANNELS 6 Xposition Yposition Zposition Zrotation Xrotation Yrotation 
	JOINT Hips
	{
		OFFSET -0.726466 93.3139 -2.00062
		CHANNELS 6 Xposition Yposition Zposition Zrotation Xrotation Yrotation 
		JOINT Spine
		{
			OFFSET 15.7357 0.0 0.0
			CHANNELS 6 Xposition Yposition Zposition Zrotation Xrotation Yrotation 
			JOINT Chest
			{
				OFFSET 8.98455 -0.406207 0.0
				CHANNELS 6 Xposition Yposition Zposition Zrotation Xrotation Yrotation 
				JOINT Neck
				{
					OFFSET 16.3773 0.0 0.0
					CHANNELS 6 Xposition Yposition Zposition Zrotation Xrotation Yrotation 
					JOINT Head
					{
						OFFSET 6.45672 0.0 0.0
						CHANNELS 6 Xposition Yposition Zposition Zrotation Xrotation Yrotation 
						End Site
						{
							OFFSET 0.0 0.0 0.0
						}
					}
				}
				JOINT Shoulder_L
				{
					OFFSET 12.9942 -0.242716 4.98039
					CHANNELS 6 Xposition Yposition Zposition Zrotation Xrotation Yrotation 
					JOINT UpperArm_L
					{
						OFFSET 5.34809 0.0 0.0
						CHANNELS 6 Xposition Yposition Zposition Zrotation Xrotation Yrotation 
						JOINT LowerArm_L
						{
							OFFSET 24.3286 1.87007e-05 0.0
							CHANNELS 6 Xposition Yposition Zposition Zrotation Xrotation Yrotation 
							JOINT Hand_L
							{
								OFFSET 22.2916 0.0 0.0
								CHANNELS 6 Xposition Yposition Zposition Zrotation Xrotation Yrotation 
								End Site
								{
									OFFSET 0.0 0.0 0.0
								}
							}
						}
					}
				}
				JOINT Shoulder_R
				{
					OFFSET 12.9945 -0.242716 -4.98039
					CHANNELS 6 Xposition Yposition Zposition Zrotation Xrotation Yrotation 
					JOINT UpperArm_R
					{
						OFFSET -5.34813 0.0 0.0
						CHANNELS 6 Xposition Yposition Zposition Zrotation Xrotation Yrotation 
						JOINT LowerArm_R
						{
							OFFSET -24.3289 0.000322201 0.0
							CHANNELS 6 Xposition Yposition Zposition Zrotation Xrotation Yrotation 
							JOINT Hand_R
							{
								OFFSET -22.2915 -0.000108084 0.0
								CHANNELS 6 Xposition Yposition Zposition Zrotation Xrotation Yrotation 
								End Site
								{
									OFFSET 0.0 0.0 0.0
								}
							}
						}
					}
				}
			}
		}
		JOINT UpperLeg_L
		{
			OFFSET -2.19248 -6.46944 0.0
			CHANNELS 6 Xposition Yposition Zposition Zrotation Xrotation Yrotation 
			JOINT LowerLeg_L
			{
				OFFSET 39.0811 0.0 -1.23785e-05
				CHANNELS 6 Xposition Yposition Zposition Zrotation Xrotation Yrotation 
				JOINT Foot_L
				{
					OFFSET 40.9854 0.0 -1.26872e-05
					CHANNELS 6 Xposition Yposition Zposition Zrotation Xrotation Yrotation 
					JOINT Toes_L
					{
						OFFSET 11.7543 0.0 0.0
						CHANNELS 6 Xposition Yposition Zposition Zrotation Xrotation Yrotation 
						End Site
						{
							OFFSET 0.0 0.0 0.0
						}
					}
				}
			}
		}
		JOINT UpperLeg_R
		{
			OFFSET -2.19251 6.46944 0.0
			CHANNELS 6 Xposition Yposition Zposition Zrotation Xrotation Yrotation 
			JOINT LowerLeg_R
			{
				OFFSET -39.0811 -0.00228153 -0.0401928
				CHANNELS 6 Xposition Yposition Zposition Zrotation Xrotation Yrotation 
				JOINT Foot_R
				{
					OFFSET -40.9854 0.0 0.0
					CHANNELS 6 Xposition Yposition Zposition Zrotation Xrotation Yrotation 
					JOINT Toes_R
					{
						OFFSET -11.7543 0.0 0.0
						CHANNELS 6 Xposition Yposition Zposition Zrotation Xrotation Yrotation 
						End Site
						{
							OFFSET 0.0 0.0 0.0
						}
					}
				}
			}
		}
	}
}
MOTION
Frames:	4
Frame Time:	0.0333333
0.000000 0.000000 0.000000 0.000000 0.000000 -0.000000 -3.184830 83.180200 14.462300 -87.876400 3.942330 173.461000 15.735700 0.000005 -0.000001 97.031600 80.838600 -95.806100 8.984550 -0.406207 -0.000000 10.401800 2.256000 2.244300 16.377300 -0.000001 -0.000001 3.879420 -1.117110 -0.212899 6.456720 -0.000001 -0.000000 -2.664190 -1.104560 3.408930 12.994200 -0.242716 4.980390 -88.286400 -4.037290 -66.978700 5.348090 -0.000007 -0.000001 -69.790400 29.969900 8.002840 24.328600 0.000019 0.000005 3.636700 3.027210 -50.277300 22.291600 -0.000001 0.000005 -3.988090 5.637160 -13.893600 12.994500 -0.242716 -4.980390 88.725800 3.052500 -67.330900 -5.348130 -0.000001 -0.000004 -45.596600 21.321300 -31.764000 -24.328900 0.000322 -0.000009 -3.769660 -1.084620 -73.961700 -22.291500 -0.000108 -0.000004 -0.258698 5.556010 -8.991630 -2.192480 -6.469440 -0.000000 179.069000 -4.338290 -35.772300 39.081100 -0.000007 -0.000012 -0.324484 -0.069006 102.007000 40.985400 -0.000006 -0.000013 9.729390 -10.609500 -51.062500 11.754300 -0.000000 0.000003 -0.005658 -0.067705 -19.332000 -2.192510 6.469440 -0.000001 -177.043000 11.496900 163.456000 -39.081100 -0.002282 -0.040193 0.099499 -0.069280 54.259000 -40.985400 0.000008 0.000006 8.977080 -1.447600 -84.735400 -11.754300 -0.000006 -0.000006 -2.594060 -2.630890 -25.420600
0.000000 0.000000 0.000000 0.000000 0.000000 -0.000000 -4.122060 86.409400 5.038340 -90.192000 5.709780 172.732000 15.735700 0.000005 -0.000001 103.049000 81.246300 -103.044000 8.984550 -0.406207 -0.000000 9.305230 3.931130 -0.310098 16.377300 -0.000001 -0.000001 4.520780 -0.918736 0.189642 6.456720 -0.000001 -0.000000 -2.333260 -2.677090 4.245870 12.994200 -0.242716 4.980390 -87.891900 -4.585280 -65.277000 5.348090 -0.000007 -0.000001 -71.568000 28.378300 13.019300 24.328600 0.000019 0.000005 2.686820 2.208980 -50.600500 22.291600 -0.000001 0.000005 -4.473540 5.637460 -13.916800 12.994500 -0.242716 -4.980390 88.961200 2.554970 -67.865800 -5.348130 -0.000001 -0.000004 -45.065000 20.355100 -33.180000 -24.328900 0.000322 -0.000009 -4.198050 -0.883895 -78.124500 -22.291500 -0.000108 -0.000004 -0.706734 5.544660 -8.455430 -2.192480 -6.469440 -0.000000 175.613000 -3.243630 -39.166600 39.081100 -0.000007 -0.000012 -0.162918 0.002635 89.076300 40.985400 -0.000006 -0.000013 7.943410 -10.018700 -56.578400 11.754300 -0.000000 0.000003 -0.004665 -0.058197 -18.944500 -2.192510 6.469440 -0.000001 177.551000 11.073700 172.283000 -39.081100 -0.002282 -0.040193 0.060673 -0.057710 44.850000 -40.985400 0.000008 0.000006 8.061730 2.539600 -73.468600 -11.754300 -0.000006 -0.000006 -0.097773 -0.438997 -34.884500
0.000000 0.000000 0.000000 0.000000 0.000000 -0.000000 -4.829610 89.889100 -4.157570 -91.224900 7.157360 171.819000 15.735700 0.000005 -0.000001 108.433000 81.566800 -109.201000 8.984550 -0.406207 -0.000000 8.297790 5.305470 -1.920110 16.377300 -0.000001 -0.000001 5.200640 -0.565549 0.176201 6.456720 -0.000001 -0.000000 -2.365970 -3.681830 4.830530 12.994200 -0.242716 4.980390 -87.274500 -5.626600 -64.101500 5.348090 -0.000007 -0.000001 -73.319100 25.210000 16.972100 24.328600 0.000019 0.000005 3.894820 3.139130 -51.188100 22.291600 -0.000001 0.000005 -5.181120 5.632020 -13.487700 12.994500 -0.242716 -4.980390 89.273400 1.822280 -68.257800 -5.348130 -0.000001 -0.000004 -45.610200 20.736500 -34.048300 -24.328900 0.000322 -0.000009 -4.111830 -0.732612 -79.909300 -22.291500 -0.000108 -0.000004 -0.926683 5.536670 -8.091330 -2.192480 -6.469440 -0.000000 174.767000 -2.551160 -39.314100 39.081100 -0.000007 -0.000012 -0.024131 0.008712 70.160800 40.985400 -0.000006 -0.000013 6.373180 -7.815200 -60.618500 11.754300 -0.000000 0.000003 -0.005718 -0.068265 -19.354800 -2.192510 6.469440 -0.000001 173.828000 12.178800 178.582000 -39.081100 -0.002282 -0.040193 0.064440 -0.083960 36.067500 -40.985400 0.000008 0.000006 8.316380 7.542080 -55.135400 -11.754300 -0.000006 -0.000006 -0.235814 -0.701524 -46.932000
0.000000 0.000000 0.000000 0.000000 0.000000 -0.000000 -5.301190 92.505600 -13.264000 -90.087500 8.163780 171.948000 15.735700 0.000005 -0.000001 112.916000 81.358200 -113.666000 8.984550 -0.406207 -0.000000 8.239990 6.696830 -1.982410 16.377300 -0.000001 -0.000001 5.652230 -0.447453 -0.186647 6.456720 -0.000001 -0.000000 -3.025090 -4.458030 5.468710 12.994200 -0.242716 4.980390 -86.659500 -6.785990 -63.711300 5.348090 -0.000007 -0.000001 -74.566500 22.220000 19.743200 24.328600 0.000019 0.000005 4.208590 3.303470 -51.935300 22.291600 -0.000001 0.000005 -4.679870 5.626180 -13.056500 12.994500 -0.242716 -4.980390 89.621300 0.963908 -68.549600 -5.348130 -0.000001 -0.000004 -47.125100 21.641800 -34.487500 -24.328900 0.000322 -0.000009 -3.521770 -0.600698 -80.325900 -22.291500 -0.000108 -0.000004 -1.001000 5.528660 -7.735670 -2.192480 -6.469440 -0.000000 176.807000 -2.992650 -34.787600 39.081100 -0.000007 -0.000012 0.026368 -0.025054 46.460800 40.985400 -0.000006 -0.000013 4.742320 -4.485160 -63.543600 11.754300 -0.000000 0.000003 -0.005584 -0.067014 -19.303800 -2.192510 6.469440 -0.000001 171.934000 13.059300 -176.307000 -39.081100 -0.002282 -0.040193 0.096767 -0.161226 30.101600 -40.985400 0.000008 0.000006 3.119310 10.925300 -36.993700 -11.754300 -0.000006 -0.000006 -0.131534 -0.516890 -38.326800
